<svg id="ig" xmlns="http://www.w3.org/2000/svg" width="29" height="29" viewBox="0 0 29 29">
  <circle id="Ellipse_3" data-name="Ellipse 3" cx="14.5" cy="14.5" r="14.5"/>
  <path id="Icon_awesome-instagram" data-name="Icon awesome-instagram" d="M9.165,6.7a4.7,4.7,0,1,0,4.7,4.7A4.693,4.693,0,0,0,9.165,6.7Zm0,7.756A3.056,3.056,0,1,1,12.221,11.4,3.061,3.061,0,0,1,9.165,14.46Zm5.989-7.948a1.1,1.1,0,1,1-1.1-1.1A1.094,1.094,0,0,1,15.154,6.512Zm3.113,1.113a5.425,5.425,0,0,0-1.481-3.841A5.461,5.461,0,0,0,12.945,2.3c-1.514-.086-6.05-.086-7.564,0A5.453,5.453,0,0,0,1.54,3.779,5.443,5.443,0,0,0,.059,7.62c-.086,1.514-.086,6.05,0,7.564A5.425,5.425,0,0,0,1.54,19.025a5.468,5.468,0,0,0,3.841,1.481c1.514.086,6.05.086,7.564,0a5.425,5.425,0,0,0,3.841-1.481,5.461,5.461,0,0,0,1.481-3.841c.086-1.514.086-6.046,0-7.56Zm-1.955,9.184a3.094,3.094,0,0,1-1.743,1.743c-1.207.479-4.07.368-5.4.368s-4.2.106-5.4-.368a3.094,3.094,0,0,1-1.743-1.743c-.479-1.207-.368-4.07-.368-5.4S1.544,7.2,2.019,6A3.094,3.094,0,0,1,3.761,4.258c1.207-.479,4.07-.368,5.4-.368s4.2-.106,5.4.368A3.094,3.094,0,0,1,16.312,6c.479,1.207.368,4.07.368,5.4S16.791,15.605,16.312,16.808Z" transform="translate(5.242 2.998)" fill="#fff"/>
</svg>
