<svg xmlns="http://www.w3.org/2000/svg" width="29" height="29" viewBox="0 0 29 29">
  <g id="twitter" transform="translate(0.324)">
    <circle id="Ellipse_7" data-name="Ellipse 7" cx="14.5" cy="14.5" r="14.5" transform="translate(-0.324)"/>
    <path id="Icon_awesome-twitter" data-name="Icon awesome-twitter" d="M16.756,7.161c.012.166.012.332.012.5a10.816,10.816,0,0,1-10.89,10.89A10.816,10.816,0,0,1,0,16.831a7.918,7.918,0,0,0,.924.047,7.665,7.665,0,0,0,4.752-1.635A3.834,3.834,0,0,1,2.1,12.588a4.827,4.827,0,0,0,.723.059,4.048,4.048,0,0,0,1.007-.13A3.828,3.828,0,0,1,.758,8.761V8.713a3.855,3.855,0,0,0,1.73.486A3.833,3.833,0,0,1,1.3,4.08,10.88,10.88,0,0,0,9.2,8.085,4.321,4.321,0,0,1,9.1,7.208a3.831,3.831,0,0,1,6.624-2.619,7.536,7.536,0,0,0,2.429-.924,3.817,3.817,0,0,1-1.683,2.109,7.673,7.673,0,0,0,2.2-.592,8.228,8.228,0,0,1-1.92,1.979Z" transform="translate(4.654 3.019)" fill="#fff"/>
  </g>
</svg>
