<svg xmlns="http://www.w3.org/2000/svg" width="29" height="29" viewBox="0 0 29 29">
  <g id="yt" transform="translate(0.162)">
    <circle id="Ellipse_5" data-name="Ellipse 5" cx="14.5" cy="14.5" r="14.5" transform="translate(-0.162)"/>
    <path id="Icon_ionic-logo-youtube" data-name="Icon ionic-logo-youtube" d="M19.229,7.706a2.939,2.939,0,0,0-2.8-3.07c-2.095-.1-4.231-.136-6.412-.136H9.338c-2.178,0-4.318.038-6.412.136A2.945,2.945,0,0,0,.132,7.714C.038,9.06,0,10.406,0,11.751s.038,2.692.129,4.042a2.949,2.949,0,0,0,2.794,3.081c2.2.1,4.457.147,6.752.144s4.548-.038,6.752-.144a2.949,2.949,0,0,0,2.8-3.081c.091-1.35.132-2.7.129-4.045S19.319,9.056,19.229,7.706ZM7.826,15.46V8.031l5.482,3.713Z" transform="translate(4.655 2.482)" fill="#fff"/>
  </g>
</svg>
