<svg id="Icon_ionic-ios-bed" data-name="Icon ionic-ios-bed" xmlns="http://www.w3.org/2000/svg" width="16.545" height="13" viewBox="0 0 16.545 13">
  <path id="Path_13" data-name="Path 13" d="M17.99,14.625h-.015a.807.807,0,0,0-.805.805.082.082,0,0,1-.081.081H3.956a.082.082,0,0,1-.081-.081.807.807,0,0,0-.805-.805H3.055a.807.807,0,0,0-.805.805v6.662a.807.807,0,0,0,.805.805H3.07a.807.807,0,0,0,.805-.805v-.229a.148.148,0,0,1,.148-.148h13a.148.148,0,0,1,.148.148v.229a.807.807,0,0,0,.805.805h.015a.807.807,0,0,0,.805-.805V15.43A.807.807,0,0,0,17.99,14.625Z" transform="translate(-2.25 -9.898)" fill="#c68930"/>
  <path id="Path_14" data-name="Path 14" d="M5.639,10.574H6.47a.148.148,0,0,0,.148-.148v-.48a.593.593,0,0,1,.591-.591h3.6a.593.593,0,0,1,.591.591v.48a.148.148,0,0,0,.148.148h.886a.148.148,0,0,0,.148-.148v-.48a.593.593,0,0,1,.591-.591h3.6a.593.593,0,0,1,.591.591v.48a.148.148,0,0,0,.148.148h.831a.3.3,0,0,0,.3-.3V6.807a1.185,1.185,0,0,0-1.182-1.182H6.526A1.185,1.185,0,0,0,5.344,6.807v3.472A.3.3,0,0,0,5.639,10.574Z" transform="translate(-3.719 -5.625)" fill="#c68930"/>
</svg>
