<svg xmlns="http://www.w3.org/2000/svg" width="20.25" height="18" viewBox="0 0 20.25 18">
  <path id="Icon_awesome-map-marked-alt" data-name="Icon awesome-map-marked-alt" d="M10.125,0A4.43,4.43,0,0,0,5.7,4.43c0,1.978,2.9,5.583,4,6.891a.555.555,0,0,0,.851,0c1.109-1.309,4-4.913,4-6.891A4.43,4.43,0,0,0,10.125,0Zm0,5.906A1.477,1.477,0,1,1,11.6,4.43,1.476,1.476,0,0,1,10.125,5.906ZM.707,7.592A1.125,1.125,0,0,0,0,8.636v8.8a.563.563,0,0,0,.771.522L5.625,15.75V7.556a10.647,10.647,0,0,1-.747-1.632Zm9.418,5.053a1.68,1.68,0,0,1-1.284-.6c-.691-.816-1.426-1.744-2.091-2.7v6.4L13.5,18V9.352c-.665.952-1.4,1.882-2.091,2.7A1.681,1.681,0,0,1,10.125,12.645Zm9.354-6.979L14.625,7.875V18l4.918-1.967a1.125,1.125,0,0,0,.707-1.044v-8.8A.563.563,0,0,0,19.479,5.666Z" fill="#f2c043"/>
</svg>
