<svg xmlns="http://www.w3.org/2000/svg" width="8.75" height="10" viewBox="0 0 8.75 10">
  <path id="Icon_awesome-building" data-name="Icon awesome-building" d="M8.516,9.375H8.125V.469A.469.469,0,0,0,7.656,0H1.094A.469.469,0,0,0,.625.469V9.375H.234A.234.234,0,0,0,0,9.609V10H8.75V9.609A.234.234,0,0,0,8.516,9.375ZM2.5,1.484a.234.234,0,0,1,.234-.234h.781a.234.234,0,0,1,.234.234v.781a.234.234,0,0,1-.234.234H2.734A.234.234,0,0,1,2.5,2.266Zm0,1.875a.234.234,0,0,1,.234-.234h.781a.234.234,0,0,1,.234.234v.781a.234.234,0,0,1-.234.234H2.734A.234.234,0,0,1,2.5,4.141ZM3.516,6.25H2.734A.234.234,0,0,1,2.5,6.016V5.234A.234.234,0,0,1,2.734,5h.781a.234.234,0,0,1,.234.234v.781A.234.234,0,0,1,3.516,6.25ZM5,9.375H3.75V7.734A.234.234,0,0,1,3.984,7.5h.781A.234.234,0,0,1,5,7.734ZM6.25,6.016a.234.234,0,0,1-.234.234H5.234A.234.234,0,0,1,5,6.016V5.234A.234.234,0,0,1,5.234,5h.781a.234.234,0,0,1,.234.234Zm0-1.875a.234.234,0,0,1-.234.234H5.234A.234.234,0,0,1,5,4.141V3.359a.234.234,0,0,1,.234-.234h.781a.234.234,0,0,1,.234.234Zm0-1.875a.234.234,0,0,1-.234.234H5.234A.234.234,0,0,1,5,2.266V1.484a.234.234,0,0,1,.234-.234h.781a.234.234,0,0,1,.234.234Z" fill="#c68930"/>
</svg>
