<svg xmlns="http://www.w3.org/2000/svg" width="19.761" height="22.584" viewBox="0 0 19.761 22.584">
  <path id="Icon_awesome-calendar" data-name="Icon awesome-calendar" d="M.529,8.469h18.7A.531.531,0,0,1,19.761,9V20.467a2.118,2.118,0,0,1-2.117,2.117H2.117A2.118,2.118,0,0,1,0,20.467V9A.531.531,0,0,1,.529,8.469ZM19.761,6.528V4.94a2.118,2.118,0,0,0-2.117-2.117H15.527V.529A.531.531,0,0,0,15,0H13.233A.531.531,0,0,0,12.7.529V2.823H7.058V.529A.531.531,0,0,0,6.528,0H4.764a.531.531,0,0,0-.529.529V2.823H2.117A2.118,2.118,0,0,0,0,4.94V6.528a.531.531,0,0,0,.529.529h18.7A.531.531,0,0,0,19.761,6.528Z" fill="#c68930"/>
</svg>
