<svg xmlns="http://www.w3.org/2000/svg" width="21.5" height="21.5" viewBox="0 0 21.5 21.5">
  <path id="Icon_awesome-ruler-combined" data-name="Icon awesome-ruler-combined" d="M6.719,12.094H4.367a.336.336,0,0,1-.336-.336v-.672a.336.336,0,0,1,.336-.336H6.719V8.063H4.367a.336.336,0,0,1-.336-.336V7.055a.336.336,0,0,1,.336-.336H6.719V4.031H4.367A.336.336,0,0,1,4.031,3.7V3.023a.336.336,0,0,1,.336-.336H6.719V1.344A1.344,1.344,0,0,0,5.375,0H1.344A1.344,1.344,0,0,0,0,1.344V20.156a1.292,1.292,0,0,0,.066.328l6.653-6.652Zm13.438,2.688H18.813v2.352a.336.336,0,0,1-.336.336H17.8a.336.336,0,0,1-.336-.336V14.781H14.781v2.352a.336.336,0,0,1-.336.336h-.672a.336.336,0,0,1-.336-.336V14.781H10.75v2.352a.336.336,0,0,1-.336.336H9.742a.336.336,0,0,1-.336-.336V14.781H7.669L1.016,21.434a1.3,1.3,0,0,0,.328.066H20.156A1.344,1.344,0,0,0,21.5,20.156V16.125A1.344,1.344,0,0,0,20.156,14.781Z" fill="#c68930"/>
</svg>
