<svg xmlns="http://www.w3.org/2000/svg" width="7.889" height="15.152" viewBox="0 0 7.889 15.152">
  <path id="Icon_metro-dollar2" data-name="Icon metro-dollar2" d="M17.846,12.223a3.217,3.217,0,0,1-.841,2.228A3.631,3.631,0,0,1,14.819,15.6v1.48a.261.261,0,0,1-.271.271H13.407a.274.274,0,0,1-.271-.271V15.6a5.33,5.33,0,0,1-1.078-.262,5.192,5.192,0,0,1-1.484-.782,4.819,4.819,0,0,1-.393-.317q-.106-.1-.148-.152a.257.257,0,0,1-.017-.347l.871-1.141a.263.263,0,0,1,.194-.1.21.21,0,0,1,.2.076l.017.017a4.415,4.415,0,0,0,2.055,1.057,2.953,2.953,0,0,0,.626.068,2.05,2.05,0,0,0,1.2-.364,1.184,1.184,0,0,0,.52-1.032.857.857,0,0,0-.127-.448,1.584,1.584,0,0,0-.283-.355A2.321,2.321,0,0,0,14.8,11.2q-.338-.173-.558-.271t-.676-.275l-.52-.211q-.19-.076-.52-.224T12,9.961q-.2-.114-.478-.3A2.977,2.977,0,0,1,11.07,9.3a5.27,5.27,0,0,1-.368-.414,2.069,2.069,0,0,1-.3-.49,3.391,3.391,0,0,1-.178-.562,2.935,2.935,0,0,1-.072-.659,2.891,2.891,0,0,1,.829-2.046A3.869,3.869,0,0,1,13.137,4V2.474a.274.274,0,0,1,.271-.271h1.141a.261.261,0,0,1,.271.271V3.962a4.7,4.7,0,0,1,.934.194,5.417,5.417,0,0,1,.736.283,4.074,4.074,0,0,1,.537.317q.254.178.33.245t.127.118a.245.245,0,0,1,.042.321L16.84,6.676a.23.23,0,0,1-.194.135.269.269,0,0,1-.228-.059q-.025-.025-.123-.1t-.33-.224a4.363,4.363,0,0,0-.495-.271,3.776,3.776,0,0,0-.63-.22,2.821,2.821,0,0,0-.723-.1,2.2,2.2,0,0,0-1.311.364,1.137,1.137,0,0,0-.435,1.344.952.952,0,0,0,.249.351,3.726,3.726,0,0,0,.334.279,2.978,2.978,0,0,0,.473.262q.317.148.512.228t.592.233q.448.169.685.266t.643.3a5.108,5.108,0,0,1,.638.359,5.4,5.4,0,0,1,.524.423,2.189,2.189,0,0,1,.448.537,3.064,3.064,0,0,1,.266.647,2.789,2.789,0,0,1,.11.795Z" transform="translate(-9.957 -2.203)" fill="#c68930"/>
</svg>
