
<svg version="1.1" id="Layer_1" xmlns="http://www.w3.org/2000/svg" xmlns:xlink="http://www.w3.org/1999/xlink" x="0px" y="0px"
	 viewBox="0 0 1080 1080" style="enable-background:new 0 0 1080 1080;" xml:space="preserve">
<style type="text/css">
	
		.st0{clip-path:url(#SVGID_00000041258925486228653710000018060263265669146036_);fill:url(#SVGID_00000134232952042003342130000000352900918471010214_);}
	
		.st1{clip-path:url(#SVGID_00000090987642834337874240000005472574249037104527_);fill:url(#SVGID_00000129903018026357815880000016173500323564838047_);}
	
		.st2{clip-path:url(#SVGID_00000070826233232917907820000013548121476255240848_);fill:url(#SVGID_00000057133378717824030350000010638855100060942778_);}
	.st3{fill:#FFFFFF;}
</style>

<g>
	<animate id="hg4" attributeName="opacity" values="0.1;1;0.1" dur="1.5s" repeatCount="indefinite"/>
	<g>
		<g>
			<defs>
				<path id="SVGID_1_" d="M845.6,223.6v89.7V738h0.8c40.9,0,44.7-28.6,44.7-53.2V251.2c0-26.2-35.9-27.7-44-27.7
					C846.1,223.6,845.6,223.6,845.6,223.6"/>
			</defs>
			<clipPath id="SVGID_00000159458860785320778840000017302034218965930153_">
				<use xlink:href="#SVGID_1_"  style="overflow:visible;"/>
			</clipPath>
			
				<linearGradient id="SVGID_00000169538391905333929370000002295060910303582615_" gradientUnits="userSpaceOnUse" x1="-593.2133" y1="1185.2328" x2="-588.5649" y2="1185.2328" gradientTransform="matrix(9.7926 0 0 9.7926 6654.6606 -11125.7461)">
				<stop  offset="0" style="stop-color:#EA2627"/>
				<stop  offset="4.690000e-02" style="stop-color:#C42224"/>
				<stop  offset="9.640000e-02" style="stop-color:#A11E21"/>
				<stop  offset="0.1232" style="stop-color:#941D20"/>
				<stop  offset="0.1862" style="stop-color:#9B1E21"/>
				<stop  offset="0.7355" style="stop-color:#D42425"/>
				<stop  offset="1" style="stop-color:#EA2627"/>
			</linearGradient>
			
				<rect x="845.6" y="223.6" style="clip-path:url(#SVGID_00000159458860785320778840000017302034218965930153_);fill:url(#SVGID_00000169538391905333929370000002295060910303582615_);" width="45.5" height="514.4"/>
		</g>
	</g>
	<g>
		<g>
			<defs>
				<path id="SVGID_00000076586731512345662820000018034794210226054030_" d="M845.6,286.5l-611.1,0c-29.9,0-45.5,12.7-45.5,36.9
					v421.9l656.6,0c40.9,0,45.5-28.6,45.5-53.2c0-48-0.1-432.9-0.2-433.6C890.9,289.3,845.6,286.5,845.6,286.5"/>
			</defs>
			<clipPath id="SVGID_00000039820968260690826120000011847906565210443962_">
				<use xlink:href="#SVGID_00000076586731512345662820000018034794210226054030_"  style="overflow:visible;"/>
			</clipPath>
			
				<linearGradient id="SVGID_00000089571935684284752460000014038348855193992614_" gradientUnits="userSpaceOnUse" x1="-710.5155" y1="1086.9326" x2="-705.8669" y2="1086.9326" gradientTransform="matrix(151.048 0 0 151.048 107510.875 -163677.0469)">
				<stop  offset="0" style="stop-color:#82181A"/>
				<stop  offset="4.690000e-02" style="stop-color:#991B1D"/>
				<stop  offset="0.1195" style="stop-color:#B61E21"/>
				<stop  offset="0.1969" style="stop-color:#CD2123"/>
				<stop  offset="0.2801" style="stop-color:#DD2325"/>
				<stop  offset="0.3734" style="stop-color:#E72427"/>
				<stop  offset="0.4975" style="stop-color:#EA2427"/>
				<stop  offset="0.6985" style="stop-color:#E82427"/>
				<stop  offset="0.7832" style="stop-color:#E12326"/>
				<stop  offset="0.846" style="stop-color:#D42224"/>
				<stop  offset="0.8981" style="stop-color:#C31F22"/>
				<stop  offset="0.9434" style="stop-color:#AC1D1F"/>
				<stop  offset="0.9835" style="stop-color:#901A1C"/>
				<stop  offset="1" style="stop-color:#82181A"/>
			</linearGradient>
			
				<rect x="188.9" y="258.6" style="clip-path:url(#SVGID_00000039820968260690826120000011847906565210443962_);fill:url(#SVGID_00000089571935684284752460000014038348855193992614_);" width="702.2" height="486.8"/>
		</g>
	</g>
	<g>
		<g>
			<defs>
				<path id="SVGID_00000087389092031218061040000004803122845033398673_" d="M188.9,757c0,24.5,3.8,53.2,44.7,53.2h0.8V352
					c0,0-45.5,2.2-45.5-28.6V757z"/>
			</defs>
			<clipPath id="SVGID_00000011018732827102054990000018097962866481140406_">
				<use xlink:href="#SVGID_00000087389092031218061040000004803122845033398673_"  style="overflow:visible;"/>
			</clipPath>
			
				<linearGradient id="SVGID_00000145751956488773776610000015042871344478041525_" gradientUnits="userSpaceOnUse" x1="-787.7536" y1="1192.1285" x2="-783.1052" y2="1192.1285" gradientTransform="matrix(-9.7926 0 0 9.7926 -7479.7153 -11107.2383)">
				<stop  offset="0" style="stop-color:#EA2627"/>
				<stop  offset="0.2645" style="stop-color:#D42425"/>
				<stop  offset="0.8138" style="stop-color:#9B1E21"/>
				<stop  offset="0.8768" style="stop-color:#941D20"/>
				<stop  offset="0.9036" style="stop-color:#A11E21"/>
				<stop  offset="0.9531" style="stop-color:#C42224"/>
				<stop  offset="1" style="stop-color:#EA2627"/>
			</linearGradient>
			
				<rect x="188.9" y="323.4" style="clip-path:url(#SVGID_00000011018732827102054990000018097962866481140406_);fill:url(#SVGID_00000145751956488773776610000015042871344478041525_);" width="45.5" height="486.7"/>
		</g>
	</g>
</g>
<g>
	<path class="st3" d="M374.7,446.5c0,19.8-14.3,31.8-38,31.8h-22.5v27.6h-13v-91.2h35.6C360.4,414.7,374.7,426.7,374.7,446.5z
		 M361.7,446.5c0-13-8.7-20.5-25.4-20.5h-22.1V467h22.1C353,467,361.7,459.5,361.7,446.5z"/>
	<path class="st3" d="M423.8,436.2v12.1c-1-0.1-2-0.1-2.9-0.1c-13.4,0-21.8,8.2-21.8,23.3v34.4h-12.5v-69h12v11.6
		C403.1,440.4,411.7,436.2,423.8,436.2z"/>
	<path class="st3" d="M427.5,471.4c0-20.6,15.2-35.2,36-35.2s35.8,14.6,35.8,35.2s-15.1,35.3-35.8,35.3S427.5,492,427.5,471.4z
		 M486.6,471.4c0-14.7-9.9-24.2-23.2-24.2s-23.3,9.5-23.3,24.2s10,24.4,23.3,24.4S486.6,486.1,486.6,471.4z"/>
	<path class="st3" d="M583.7,471.4c0,21.2-14.7,35.3-34.9,35.3c-9.8,0-18.4-3.8-24.1-11.2v35.7h-12.5v-94.3h12v10.9
		c5.6-7.7,14.5-11.6,24.6-11.6C569,436.2,583.7,450.3,583.7,471.4z M571.1,471.4c0-14.6-10-24.2-23.3-24.2
		c-13.2,0-23.2,9.6-23.2,24.2c0,14.7,10,24.4,23.2,24.4C561.1,495.8,571.1,486.1,571.1,471.4z"/>
	<path class="st3" d="M660.2,475.6h-56c1.6,12.1,11.3,20.2,25,20.2c8.1,0,14.8-2.7,19.9-8.3l6.9,8.1c-6.2,7.3-15.8,11.2-27.2,11.2
		c-22.3,0-37.1-14.7-37.1-35.3c0-20.5,14.7-35.2,34.7-35.2c19.9,0,34.1,14.3,34.1,35.6C660.5,472.8,660.3,474.4,660.2,475.6z
		 M604.2,466.6h44.3c-1.3-11.6-10-19.8-22.1-19.8C614.3,446.8,605.5,454.9,604.2,466.6z"/>
	<path class="st3" d="M710.3,436.2v12.1c-1-0.1-2-0.1-2.9-0.1c-13.4,0-21.8,8.2-21.8,23.3v34.4h-12.5v-69h12v11.6
		C689.6,440.4,698.2,436.2,710.3,436.2z"/>
	<path class="st3" d="M764.7,501.9c-3.8,3.3-9.5,4.8-15.1,4.8c-13.9,0-21.9-7.7-21.9-21.6v-37.9H716v-10.3h11.7v-15.1h12.5v15.1
		h19.8v10.3h-19.8v37.4c0,7.4,3.9,11.6,10.8,11.6c3.7,0,7.2-1.2,9.8-3.3L764.7,501.9z"/>
	<path class="st3" d="M839.7,436.9l-33.5,75.9c-6.1,14.6-14.1,19.2-24.6,19.2c-6.6,0-13.4-2.2-17.7-6.4l5.3-9.4
		c3.4,3.3,7.7,5.1,12.4,5.1c6,0,9.8-2.7,13.2-10.7l2.2-4.8l-30.5-68.9h13l24.1,55.2l23.8-55.2L839.7,436.9L839.7,436.9z"/>
	<path class="st3" d="M348.6,545.4V618h-23.2v-72.6h-27.2v-18.8h77.9v18.8H348.6z"/>
	<path class="st3" d="M469.8,579.7c0,24.1-16,39.3-41.5,39.3c-25.7,0-42.1-15.2-42.1-39.3v-52.9h23.2v52.9c0,12.4,8,19.9,19,19.9
		c10.9,0,18.4-7.6,18.4-19.9v-52.9h23.1L469.8,579.7L469.8,579.7z"/>
	<path class="st3" d="M521.4,592.3h-0.7h-17.6v25.7H480v-91.2h40.8c24.1,0,37.9,11.5,37.9,31.8c0,13.9-5.9,24-16.5,29.3l19.2,30.1
		H535L521.4,592.3z M520.8,574c10,0,15.9-5.1,15.9-14.7c0-9.5-5.9-14.3-15.9-14.3h-17.6v29H520.8z"/>
	<path class="st3" d="M606.6,582.1l-12.1,13.4V618h-23.2v-91.2h23.2v39.5l34.9-39.5h26.8l-33.9,37.8l36.1,53.4h-27.8L606.6,582.1z"
		/>
	<path class="st3" d="M687.8,545v18.1h43.5v18.2h-43.5v18.4h49.6V618h-72.8v-91.2h71.4V545H687.8z"/>
	<path class="st3" d="M797.3,618h-23.1v-28.8l-33.7-62.4h23.2l22,39.7l21.5-39.7h23.2l-33.1,61.7L797.3,618L797.3,618z"/>
</g>
</svg>
