<?xml version="1.0" encoding="utf-8"?>
<!-- Generator: Adobe Illustrator 26.1.0, SVG Export Plug-In . SVG Version: 6.00 Build 0)  -->
<svg version="1.1" id="Layer_1" xmlns="http://www.w3.org/2000/svg" xmlns:xlink="http://www.w3.org/1999/xlink" x="0px" y="0px"
	 viewBox="0 0 200 200" style="enable-background:new 0 0 200 200;" xml:space="preserve">
<style type="text/css">
	
		.st0{clip-path:url(#SVGID_00000076586999054774110630000006070631262333987238_);fill:url(#SVGID_00000116933803468780641640000008882898496845617053_);}
	
		.st1{clip-path:url(#SVGID_00000077303913821898231370000016928534924698698128_);fill:url(#SVGID_00000065786853754287858520000013187312747192181142_);}
	
		.st2{clip-path:url(#SVGID_00000021094763197028245530000003877193044771186360_);fill:url(#SVGID_00000181048253240221466940000000452234612291859134_);}
	.st3{fill:#FFFFFF;}
</style>
<g>
	<g>
		<g>
			<g>
				<g>
					<defs>
						<path id="SVGID_1_" d="M152.9,49.2v15.5v73.6h0.1c7.1,0,7.7-5,7.7-9.2V54c0-4.5-6.2-4.8-7.6-4.8
							C153,49.2,152.9,49.2,152.9,49.2"/>
					</defs>
					<clipPath id="SVGID_00000029046156298457096100000010611645352991059617_">
						<use xlink:href="#SVGID_1_"  style="overflow:visible;"/>
					</clipPath>
					
						<linearGradient id="SVGID_00000072267722632249354610000013511347911881444237_" gradientUnits="userSpaceOnUse" x1="-663.0438" y1="-944.61" x2="-662.2388" y2="-944.61" gradientTransform="matrix(9.7926 0 0 -9.7926 6645.8682 -9156.4336)">
						<stop  offset="0" style="stop-color:#EA2627"/>
						<stop  offset="4.690000e-02" style="stop-color:#C42224"/>
						<stop  offset="9.640000e-02" style="stop-color:#A11E21"/>
						<stop  offset="0.1232" style="stop-color:#941D20"/>
						<stop  offset="0.1862" style="stop-color:#9B1E21"/>
						<stop  offset="0.7355" style="stop-color:#D42425"/>
						<stop  offset="1" style="stop-color:#EA2627"/>
					</linearGradient>
					
						<rect x="152.9" y="49.2" style="clip-path:url(#SVGID_00000029046156298457096100000010611645352991059617_);fill:url(#SVGID_00000072267722632249354610000013511347911881444237_);" width="7.9" height="89.1"/>
				</g>
			</g>
		</g>
		<g>
			<g>
				<g>
					<defs>
						<path id="SVGID_00000014607662779921547070000008398667690355325885_" d="M152.9,60.1H47.1c-5.2,0-7.9,2.2-7.9,6.4v73.1h113.8
							c7.1,0,7.9-5,7.9-9.2c0-8.3,0-75,0-75.1C160.8,60.6,152.9,60.1,152.9,60.1"/>
					</defs>
					<clipPath id="SVGID_00000114044426602739694270000012552306576702716567_">
						<use xlink:href="#SVGID_00000014607662779921547070000008398667690355325885_"  style="overflow:visible;"/>
					</clipPath>
					
						<linearGradient id="SVGID_00000142162667205558951310000017637439734276312469_" gradientUnits="userSpaceOnUse" x1="-710.5135" y1="-883.2479" x2="-709.7081" y2="-883.2479" gradientTransform="matrix(151.048 0 0 -151.048 107360.8281 -133315.3906)">
						<stop  offset="0" style="stop-color:#82181A"/>
						<stop  offset="4.690000e-02" style="stop-color:#991B1D"/>
						<stop  offset="0.1195" style="stop-color:#B61E21"/>
						<stop  offset="0.1969" style="stop-color:#CD2123"/>
						<stop  offset="0.2801" style="stop-color:#DD2325"/>
						<stop  offset="0.3734" style="stop-color:#E72427"/>
						<stop  offset="0.4975" style="stop-color:#EA2427"/>
						<stop  offset="0.6985" style="stop-color:#E82427"/>
						<stop  offset="0.7832" style="stop-color:#E12326"/>
						<stop  offset="0.846" style="stop-color:#D42224"/>
						<stop  offset="0.8981" style="stop-color:#C31F22"/>
						<stop  offset="0.9434" style="stop-color:#AC1D1F"/>
						<stop  offset="0.9835" style="stop-color:#901A1C"/>
						<stop  offset="1" style="stop-color:#82181A"/>
					</linearGradient>
					
						<rect x="39.2" y="55.3" style="clip-path:url(#SVGID_00000114044426602739694270000012552306576702716567_);fill:url(#SVGID_00000142162667205558951310000017637439734276312469_);" width="121.7" height="84.3"/>
				</g>
			</g>
		</g>
		<g>
			<g>
				<g>
					<defs>
						<path id="SVGID_00000064325598906518815500000015597888922847200143_" d="M39.2,141.6c0,4.2,0.7,9.2,7.7,9.2h0.1V71.4
							c0,0-7.9,0.4-7.9-5V141.6z"/>
					</defs>
					<clipPath id="SVGID_00000183930708353121221940000011666242059789693365_">
						<use xlink:href="#SVGID_00000064325598906518815500000015597888922847200143_"  style="overflow:visible;"/>
					</clipPath>
					
						<linearGradient id="SVGID_00000098918483771040098680000013080688065641576332_" gradientUnits="userSpaceOnUse" x1="-767.5161" y1="-944.2407" x2="-766.7111" y2="-944.2407" gradientTransform="matrix(-9.7926 0 0 -9.7926 -7468.9229 -9137.9258)">
						<stop  offset="0" style="stop-color:#EA2627"/>
						<stop  offset="0.2645" style="stop-color:#D42425"/>
						<stop  offset="0.8138" style="stop-color:#9B1E21"/>
						<stop  offset="0.8768" style="stop-color:#941D20"/>
						<stop  offset="0.9036" style="stop-color:#A11E21"/>
						<stop  offset="0.9531" style="stop-color:#C42224"/>
						<stop  offset="1" style="stop-color:#EA2627"/>
					</linearGradient>
					
						<rect x="39.2" y="66.5" style="clip-path:url(#SVGID_00000183930708353121221940000011666242059789693365_);fill:url(#SVGID_00000098918483771040098680000013080688065641576332_);" width="7.9" height="84.3"/>
				</g>
			</g>
		</g>
	</g>
	<g>
		<path class="st3" d="M71.4,87.8c0,3.4-2.5,5.5-6.6,5.5h-3.9v4.8h-2.3V82.3h6.2C68.9,82.3,71.4,84.4,71.4,87.8z M69.1,87.8
			c0-2.3-1.5-3.6-4.4-3.6h-3.8v7.1h3.8C67.6,91.4,69.1,90.1,69.1,87.8z"/>
		<path class="st3" d="M79.9,86v2.1c-0.2,0-0.3,0-0.5,0c-2.3,0-3.8,1.4-3.8,4v6h-2.2v-12h2.1v2C76.3,86.8,77.8,86,79.9,86z"/>
		<path class="st3" d="M80.5,92.1c0-3.6,2.6-6.1,6.2-6.1s6.2,2.5,6.2,6.1s-2.6,6.1-6.2,6.1S80.5,95.7,80.5,92.1z M90.7,92.1
			c0-2.5-1.7-4.2-4-4.2s-4,1.6-4,4.2c0,2.5,1.7,4.2,4,4.2S90.7,94.7,90.7,92.1z"/>
		<path class="st3" d="M107.6,92.1c0,3.7-2.5,6.1-6,6.1c-1.7,0-3.2-0.7-4.2-1.9v6.2h-2.2V86.1h2.1V88c1-1.3,2.5-2,4.3-2
			C105,86,107.6,88.5,107.6,92.1z M105.4,92.1c0-2.5-1.7-4.2-4-4.2c-2.3,0-4,1.7-4,4.2c0,2.5,1.7,4.2,4,4.2
			C103.7,96.4,105.4,94.7,105.4,92.1z"/>
		<path class="st3" d="M120.8,92.9h-9.7c0.3,2.1,2,3.5,4.3,3.5c1.4,0,2.6-0.5,3.4-1.4l1.2,1.4c-1.1,1.3-2.7,1.9-4.7,1.9
			c-3.9,0-6.4-2.5-6.4-6.1c0-3.6,2.5-6.1,6-6.1c3.4,0,5.9,2.5,5.9,6.2C120.9,92.4,120.8,92.6,120.8,92.9z M111.1,91.3h7.7
			c-0.2-2-1.7-3.4-3.8-3.4C112.9,87.9,111.3,89.3,111.1,91.3z"/>
		<path class="st3" d="M129.5,86v2.1c-0.2,0-0.3,0-0.5,0c-2.3,0-3.8,1.4-3.8,4v6h-2.2v-12h2.1v2C125.9,86.8,127.4,86,129.5,86z"/>
		<path class="st3" d="M138.9,97.4c-0.7,0.6-1.6,0.8-2.6,0.8c-2.4,0-3.8-1.3-3.8-3.7v-6.6h-2v-1.8h2v-2.6h2.2v2.6h3.4v1.8h-3.4v6.5
			c0,1.3,0.7,2,1.9,2c0.6,0,1.2-0.2,1.7-0.6L138.9,97.4z"/>
		<path class="st3" d="M151.9,86.1l-5.8,13.1c-1.1,2.5-2.4,3.3-4.3,3.3c-1.1,0-2.3-0.4-3.1-1.1l0.9-1.6c0.6,0.6,1.3,0.9,2.1,0.9
			c1,0,1.7-0.5,2.3-1.9l0.4-0.8l-5.3-11.9h2.3l4.2,9.6l4.1-9.6L151.9,86.1L151.9,86.1z"/>
		<path class="st3" d="M66.8,104.9v12.6h-4v-12.6h-4.7v-3.3h13.5v3.3H66.8z"/>
		<path class="st3" d="M87.8,110.9c0,4.2-2.8,6.8-7.2,6.8c-4.5,0-7.3-2.6-7.3-6.8v-9.2h4v9.2c0,2.1,1.4,3.4,3.3,3.4
			c1.9,0,3.2-1.3,3.2-3.4v-9.2h4L87.8,110.9L87.8,110.9z"/>
		<path class="st3" d="M96.8,113.1h-0.1h-3v4.5h-4v-15.8h7.1c4.2,0,6.6,2,6.6,5.5c0,2.4-1,4.2-2.9,5.1l3.3,5.2h-4.6L96.8,113.1z
			 M96.7,109.9c1.7,0,2.8-0.9,2.8-2.5c0-1.6-1-2.5-2.8-2.5h-3v5H96.7z"/>
		<path class="st3" d="M111.5,111.3l-2.1,2.3v3.9h-4v-15.8h4v6.8l6-6.8h4.6l-5.9,6.5l6.3,9.3h-4.8L111.5,111.3z"/>
		<path class="st3" d="M125.6,104.9v3.1h7.5v3.2h-7.5v3.2h8.6v3.2h-12.6v-15.8H134v3.2H125.6z"/>
		<path class="st3" d="M144.6,117.5h-4v-5l-5.8-10.8h4l3.8,6.9l3.7-6.9h4l-5.7,10.7L144.6,117.5L144.6,117.5z"/>
	</g>
</g>
</svg>
